<svg xmlns="http://www.w3.org/2000/svg" viewBox="0 0 128 128"><rect width="128" height="128" rx="22" fill="#fffdf9"/><g fill="none" stroke="#b1812d" stroke-width="5" stroke-linejoin="round"><path d="M64 8l14 17 22-3-3 22 17 14-17 14 3 22-22-3-14 17-14-17-22 3 3-22-17-14 17-14-3-22 22 3z"/><path d="M64 27l28 31-28 36-28-36z"/><path d="M65 38c-3 5-8 8-12 12-8 8-8 27 11 35 19-8 19-27 11-35-4-4-8-7-10-12z"/><path d="M64 38V27c0-5 4-9 9-9" stroke-linecap="round"/><path d="M54 57c7 4 13 4 20 0M54 67c7 4 13 4 20 0M57 77c5 2 10 2 15 0" stroke-width="3" stroke-linecap="round"/></g></svg>